<?xml version="1.0" standalone="no"?>
<!DOCTYPE svg PUBLIC "-//W3C//DTD SVG 20010904//EN"
 "http://www.w3.org/TR/2001/REC-SVG-20010904/DTD/svg10.dtd">
<svg version="1.0" xmlns="http://www.w3.org/2000/svg"
 width="500.000000pt" height="500.000000pt" viewBox="0 0 500.000000 500.000000"
 preserveAspectRatio="xMidYMid meet">
<metadata>
Created by potrace 1.14, written by Peter Selinger 2001-2017
</metadata>
<g transform="translate(0.000000,500.000000) scale(0.100000,-0.100000)"
fill="#000000" stroke="none">
<path d="M1194 4840 c-14 -14 -427 -260 -436 -260 -4 0 -9 -3 -9 -7 -3 -15 -7
-260 -14 -791 -5 -458 -4 -533 8 -525 8 4 117 77 243 162 l229 153 0 633 c0
349 -3 636 -6 639 -3 3 -10 2 -15 -4z"/>
<path d="M1493 4573 l2 -276 185 -107 c102 -59 331 -191 510 -295 179 -103
341 -197 360 -207 19 -11 76 -44 125 -73 50 -29 111 -64 136 -78 l45 -26 143
85 c79 46 145 84 147 84 2 0 27 14 56 31 85 51 221 129 223 129 2 0 32 17 66
38 35 22 89 53 121 70 l56 32 0 -486 c0 -267 2 -487 4 -488 2 -2 53 -29 113
-61 138 -72 267 -141 323 -172 23 -12 45 -23 47 -23 3 0 5 468 5 1040 l0 1041
-57 -32 c-32 -18 -73 -41 -90 -51 -18 -10 -48 -26 -65 -36 -18 -10 -60 -34
-93 -52 -33 -18 -64 -36 -70 -40 -5 -5 -37 -23 -70 -40 -33 -18 -68 -40 -77
-48 -10 -8 -18 -12 -18 -8 0 4 -12 -1 -27 -12 -16 -10 -48 -30 -73 -44 -25
-14 -171 -97 -325 -185 -154 -88 -300 -171 -325 -185 l-46 -25 -139 83 c-77
46 -147 87 -155 91 -8 4 -112 64 -232 135 -119 70 -231 136 -250 146 -18 11
-105 62 -193 114 -193 115 -354 208 -360 208 -2 0 -3 -124 -2 -277z"/>
<path d="M1495 2845 l0 -1106 135 -78 c518 -298 812 -469 991 -572 113 -65
210 -119 216 -119 6 0 62 30 124 66 63 37 134 78 159 92 44 24 73 41 230 134
l75 44 0 358 c0 197 -2 361 -5 365 -5 7 -178 111 -185 111 -3 0 -190 108 -225
130 -8 5 -49 29 -90 52 -41 23 -88 51 -105 60 -16 10 -45 26 -62 35 -20 10
-33 25 -34 37 -3 59 0 238 4 242 2 3 29 -9 58 -27 59 -35 218 -127 289 -166
25 -14 50 -29 55 -33 6 -4 30 -19 55 -32 25 -14 86 -49 135 -78 50 -29 111
-64 136 -79 25 -14 85 -48 132 -76 l87 -50 2 -357 3 -356 261 150 261 151 -1
354 -1 355 -175 100 c-96 55 -197 112 -225 127 -27 15 -144 82 -260 148 -115
66 -237 135 -270 153 -33 18 -137 77 -232 131 -95 54 -189 108 -210 119 -21
12 -45 25 -53 31 -31 20 -332 189 -337 189 -3 0 -17 8 -31 18 -15 10 -57 35
-93 55 l-66 36 1 -696 1 -696 75 -45 c41 -25 96 -56 121 -71 25 -14 150 -87
278 -161 l232 -135 -3 -85 -3 -85 -50 -28 c-27 -15 -59 -26 -70 -24 -16 3
-736 433 -814 487 l-22 15 -2 834 -2 833 -70 37 c-178 94 -407 211 -413 211
-4 0 -7 -497 -7 -1105z"/>
<path d="M980 2991 l-235 -158 -1 -724 c0 -398 3 -734 7 -746 6 -17 102 -81
224 -149 11 -6 151 -87 310 -181 160 -93 310 -181 335 -195 25 -14 178 -103
340 -198 162 -95 309 -180 325 -190 17 -9 151 -88 298 -174 147 -87 274 -155
282 -152 13 5 320 196 955 596 151 95 294 184 317 197 24 14 46 30 50 36 10
15 11 517 1 523 -5 4 -279 -159 -528 -313 -30 -19 -120 -74 -200 -122 -80 -48
-250 -151 -378 -229 -129 -78 -238 -142 -243 -142 -5 0 -41 19 -80 43 -38 23
-82 49 -97 58 -15 9 -121 74 -237 144 -396 242 -620 377 -650 395 -16 9 -124
74 -240 145 -115 70 -233 142 -262 159 l-52 31 5 615 c3 338 6 677 7 753 1 86
-2 137 -8 136 -5 0 -116 -71 -245 -158z"/>
</g>
</svg>
